<svg xmlns="http://www.w3.org/2000/svg" xmlns:v="https://svgstorm.com"
viewBox = "0 0 50 55"
width="100"
height="55">

<g fill="#000000" fill-opacity="0.00" stroke="None">
<path d="
M 0.00 55.00 
L 239.00 55.00
C 234.95 53.66 233.50 47.07 238.00 47.00
C 243.30 50.93 257.18 52.53 253.00 42.00
C 241.24 48.67 229.13 39.71 233.00 26.00 C 236.87 12.29 252.36 19.57 262.00 17.00
C 257.37 28.68 266.10 44.60 257.00 55.00
L 316.00 55.00
L 316.00 0.00
L 0.00 0.00
L 0.00 55.00
M 271.00 5.00 
C 276.36 5.16 276.01 14.69 269.99 13.99 C 263.97 13.30 266.36 4.86 271.00 5.00
M 36.00 13.00 
C 36.74 14.65 37.48 16.73 37.00 19.00
C 33.67 18.78 27.51 20.56 29.00 15.00
C 24.75 11.16 11.78 12.01 13.00 19.00 C 14.23 25.99 9.56 35.32 16.03 37.97 C 22.49 40.62 32.86 37.79 28.00 30.00
C 25.97 28.21 18.74 31.06 22.00 24.00
C 27.00 24.00 32.00 24.00 37.00 24.00
C 41.63 40.51 29.91 46.55 16.00 45.00 C 2.09 43.45 2.45 24.13 5.33 13.33 C 8.21 2.53 32.32 4.67 36.00 13.00
M 189.00 23.00 
C 188.74 22.75 188.00 23.00 188.00 23.00
C 184.12 25.65 183.02 32.20 177.97 32.97 C 172.93 33.75 170.75 24.93 167.00 23.00
C 165.05 29.99 172.35 48.16 159.00 44.00
C 159.00 31.67 159.00 19.33 159.00 7.00
C 168.70 4.95 172.03 16.20 177.00 22.00
C 181.35 17.77 185.18 12.24 188.00 7.00
C 198.09 4.45 196.05 13.93 196.00 21.00 C 195.95 28.07 196.04 36.78 196.00 44.00
C 184.00 46.68 190.46 29.47 189.00 23.00
M 134.00 20.00 
C 137.47 17.45 142.14 18.71 146.00 17.00
C 155.51 21.73 150.17 25.93 153.00 35.00 C 155.83 44.07 144.85 47.34 145.21 39.77 C 145.58 32.20 147.66 21.55 138.33 24.33 C 129.00 27.11 136.72 39.45 134.00 45.00
C 120.93 47.66 130.90 33.08 127.00 27.00 C 123.10 20.92 126.93 13.41 134.00 20.00
M 228.00 22.00 
C 227.11 30.16 228.86 36.84 230.00 44.00
C 222.11 43.93 219.43 42.38 212.00 44.00 C 204.57 45.62 200.37 38.62 202.00 32.00
C 207.12 27.41 214.01 27.58 221.00 28.00
C 221.57 20.94 209.86 21.34 208.00 27.00
C 206.10 26.17 204.37 26.39 202.00 26.00
C 204.16 13.78 221.09 15.03 228.00 22.00
M 268.00 44.00 
C 269.23 34.91 266.44 30.87 267.00 22.00 C 267.56 13.13 280.04 17.45 275.03 25.03 C 270.01 32.60 282.04 45.59 268.00 44.00
M 300.00 27.00 
C 296.81 19.17 288.51 22.51 289.00 31.00 C 289.49 39.49 298.40 40.77 301.00 33.00
C 313.03 31.97 306.46 44.82 297.00 44.00 C 287.53 43.18 282.02 43.10 281.01 31.99 C 280.00 20.88 285.48 16.77 296.00 17.00 C 306.52 17.23 312.68 27.36 300.00 27.00
M 61.00 18.00 
C 63.95 26.42 50.68 22.55 50.08 30.08 C 49.48 37.61 52.79 47.32 42.00 45.00
C 40.23 39.92 44.35 31.77 42.00 27.00 C 39.65 22.23 40.43 15.43 47.00 18.00 C 53.57 20.57 53.26 17.36 61.00 18.00
M 70.00 34.00 
C 68.79 40.29 81.35 41.33 82.00 36.00
C 93.98 33.84 88.11 44.38 80.00 45.00 C 71.88 45.61 63.18 44.44 63.00 35.00 C 62.82 25.56 62.66 17.98 73.00 18.00 C 83.34 18.03 87.59 17.00 89.07 27.08 C 90.55 37.15 78.32 33.57 70.00 34.00
M 114.00 45.00 
C 110.13 45.86 103.08 45.44 100.00 44.00
C 92.76 40.61 93.73 34.60 94.00 27.00 C 94.27 19.40 101.81 17.18 109.00 18.00 C 116.20 18.82 122.04 19.84 121.00 29.00 C 119.96 38.16 108.92 32.41 102.00 34.00
C 102.91 44.98 114.85 34.55 121.00 36.00
C 121.76 40.11 117.50 44.02 114.00 45.00 Z"/>
</g>
<g fill="#CBDD84" fill-opacity="1.00" stroke="None">

<path d="
M 28.00 30.00
C 26.55 28.19 20.43 29.44 24.00 25.00
C 34.37 21.20 39.44 34.16 33.75 39.75 C 28.06 45.34 14.87 45.47 9.25 40.75 C 3.62 36.03 4.93 22.08 6.33 14.33 C 7.73 6.58 23.93 7.47 30.00 8.00
C 28.96 12.58 36.22 10.64 34.00 15.00
C 35.41 15.51 36.15 14.19 36.00 13.00
C 32.32 4.67 8.21 2.53 5.33 13.33 C 2.45 24.13 2.09 43.45 16.00 45.00 C 29.91 46.55 41.63 40.51 37.00 24.00

C 18.74 31.06 25.97 28.21 28.00 30.00 Z"/>
</g>
<g fill="#CFE192" fill-opacity="1.00" stroke="None">

<path d="
M 28.00 30.00
C 32.86 37.79 22.49 40.62 16.03 37.97 C 9.56 35.32 14.23 25.99 13.00 19.00 C 11.78 12.01 24.75 11.16 29.00 15.00
C 27.51 20.56 33.67 18.78 37.00 19.00

C 36.15 14.19 35.41 15.51 34.00 15.00
C 36.22 10.64 28.96 12.58 30.00 8.00
C 23.93 7.47 7.73 6.58 6.33 14.33 C 4.93 22.08 3.62 36.03 9.25 40.75 C 14.87 45.47 28.06 45.34 33.75 39.75 C 39.44 34.16 34.37 21.20 24.00 25.00
C 20.43 29.44 26.55 28.19 28.00 30.00 Z"/>
</g>





</svg>